PathFileType	4	(X/Y/Z)	37_2_28_p1_0-670_filt_butterworth.trc
DataRate	CameraRate	NumFrames	NumMarkers	Units	OrigDataRate	OrigDataStartFrame	OrigNumFrames
55.0	55.0	7	27	m	55.0	83	670
Frame#	Time	RHip			RKnee			RAnkle			RBigToe			RSmallToe			RHeel			LHip			LKnee			LAnkle			LBigToe			LSmallToe			LHeel			Neck			Head			Nose			RShoulder			RElbow			RWrist			RThumb			RIndex			RPinky			LShoulder			LElbow			LWrist			LThumb			LIndex			LPinky			
		X1	Y1	Z1	X2	Y2	Z2	X3	Y3	Z3	X4	Y4	Z4	X5	Y5	Z5	X6	Y6	Z6	X7	Y7	Z7	X8	Y8	Z8	X9	Y9	Z9	X10	Y10	Z10	X11	Y11	Z11	X12	Y12	Z12	X13	Y13	Z13	X14	Y14	Z14	X15	Y15	Z15	X16	Y16	Z16	X17	Y17	Z17	X18	Y18	Z18	X19	Y19	Z19	X20	Y20	Z20	X21	Y21	Z21	X22	Y22	Z22	X23	Y23	Z23	X24	Y24	Z24	X25	Y25	Z25	X26	Y26	Z26	X27	Y27	Z27	
83	1.509090909090909	0.3776272495267446	0.6677957691543153	0.9022483612219887	0.35381277734777666	0.2192739817130191	0.9370257714846421	0.37516445135676013	-0.2102398998115421	0.9376785864600911	0.30320940975377064	-0.20342246794161878	0.7935862489800646	0.38227971261853255	-0.20411720017142473	0.7904513598425541	0.3966455209939253	-0.3083480717606977	1.0011063185285158	0.19843300545558232	0.6529073632850872	0.987595529201662	0.16256227273143933	0.19730464413094706	1.041284666445892	0.1630858980048219	-0.2443564044530302	1.0131807059956495	0.1646071963984354	-0.2151062679046426	0.8285984059249508	0.10847942268379872	-0.2597532971371094	0.9011749448237764	0.18101921890780812	-0.288489545180149	1.0223936859699125	0.29401429181909733	1.2066433627587343	0.9982572579696327	0.27437045234989976	1.46466076504723	0.9777425419833964	0.24824529503154957	1.3210893196734035	0.9143088030410327	0.44192228833768465	1.135079589010892	0.9021908837330395	0.41077143663811666	0.9138739432697434	0.772885127028891	0.20184904560191252	0.991643691660728	0.6814144053518038	0.06997882921672474	1.046264801245634	0.6791380143239938	0.045226654277981976	1.0432181474480255	0.6562962737697542	0.06887244896483505	0.9859830849092198	0.6526217145656206	0.16105106125022944	1.102512189814446	1.0979995769819664	0.11572608275122276	0.8596767452674811	1.1134449979991914	0.046535030597987664	0.9050490595924477	0.824817618433584	0.005827237647647864	0.9778964712400704	0.7067961356567037	-0.008299937056003653	0.9583286682221758	0.6741367201777302	0.010593178443656665	0.9166375562499685	0.6633267044274649	
84	1.5272727272727271	0.378438874554773	0.6678940040911614	0.9043575066435741	0.35400170207893616	0.2187199458712648	0.9370565980187062	0.37468272977987144	-0.20999859744945049	0.9370310035950179	0.3015179818714131	-0.19964533264864004	0.7882137090765269	0.3825390506595341	-0.20418979994314923	0.7906616544856796	0.3961576655316088	-0.3088967431642918	1.0002100632361026	0.1984188651573928	0.6536864217187406	0.9874822587868599	0.162683803298621	0.1968293177460788	1.0413419724002602	0.16346767882766494	-0.24393205715056318	1.0133405631829013	0.16551201927019982	-0.2151150596717709	0.8294157386565688	0.10833704794989273	-0.25947095082951377	0.9011918195104134	0.18151005510064538	-0.28872602022082294	1.0222181936061143	0.294011831535547	1.206625198193222	0.9982841559233893	0.2743883434991479	1.4645935497049463	0.9777117432907299	0.24859474217524394	1.3214130537812663	0.9120255796016206	0.44161049838707167	1.134856068282939	0.9048011049963383	0.4044105368572942	0.9196891582871504	0.7673331487052757	0.19599905981160876	0.9948988358186968	0.6794663418641089	0.062300335355851055	1.0472058373544628	0.6760595940702625	0.040157615059125684	1.0427298393999307	0.6607481884702221	0.059635458706640825	0.9889422220310481	0.6475236762015678	0.16051950765104134	1.1026460440368289	1.09766420062518	0.11323062145292788	0.8633776453516967	1.1016456056322677	0.048854796606780854	0.9122530601295457	0.8151728734810293	0.004725530665526315	0.98810776427233	0.7080966722730128	-0.007295765486045562	0.9642513688156586	0.672194377804205	0.012390764799258148	0.9263758496079902	0.6591896210951791	
85	1.5454545454545454	0.3792267363422538	0.6678756078201677	0.9067363987426519	0.35409913984239205	0.21827858460890265	0.9368504413493849	0.37429858325016424	-0.20957729240806416	0.9365302282230028	0.3001797368456913	-0.1956986384554502	0.7826503973840164	0.38297697960834554	-0.20344890259571624	0.7896892015736111	0.39580807372350724	-0.3097426663721882	0.9996784915039273	0.1984293180348822	0.6543044738668	0.9873968028048999	0.16275418591140486	0.1963756196164228	1.0414225331012892	0.16392212051597685	-0.24369528002227966	1.0138077248274762	0.16629977640478255	-0.2154777381583186	0.8299209145757415	0.10800737721586451	-0.25950143802604464	0.9011244082405034	0.18205606437407287	-0.2890405985571705	1.0222286590540337	0.2940204468042466	1.2065938845935515	0.9983160443465446	0.2744105087155142	1.4645276396443232	0.9776844126593895	0.24881393487575462	1.321666601980906	0.9105302011842116	0.4412545697884934	1.1343978629237588	0.9075698964688723	0.3977039922839408	0.9263566064174165	0.7633419014247448	0.1893860584901827	0.9980032066778667	0.676982910997709	0.055421626674185494	1.0486588118980642	0.6740782469228812	0.03477979290101488	1.0424624764032304	0.6653631122327475	0.05115369698398331	0.9920940675539043	0.6449473759929438	0.15981361993288246	1.1027746854355382	1.0973059983498241	0.1099755970050941	0.868258555766706	1.0867651957392477	0.05058678376746627	0.9190024594324973	0.8070242312321226	0.0028186623231655312	0.9969941637611454	0.7078625157458756	-0.006555120717340549	0.9695864267310783	0.6697141490074929	0.013536966830191885	0.9358335356727895	0.6529239731304057	
86	1.5636363636363635	0.3799139655181275	0.6678074856172621	0.9092236066252477	0.35407934765891447	0.21791137706365138	0.9364428167896212	0.3739344382469364	-0.20902750749416305	0.9359878792254325	0.29935581546207946	-0.19240931045406076	0.7780476835526026	0.3833411983616014	-0.20183374502170123	0.7874324620140244	0.39565749441340287	-0.3109012197149145	0.9995860023987038	0.19847043412991075	0.654673371650528	0.9873594690122913	0.16277567689061034	0.19594613326117433	1.0415351268237518	0.16444875252126256	-0.2439024105316639	1.014731796121405	0.1668921339331202	-0.21590493944062672	0.8296632626670061	0.10758042152727768	-0.2594805437600305	0.9010101413990277	0.18253258609641523	-0.2893554112518848	1.0222789412851525	0.2940343923112413	1.206552608959066	0.9983511117468489	0.27442954127309127	1.4644711952918223	0.9776692014535331	0.24887368920584174	1.3217575120879925	0.9100879657434915	0.44094550205950445	1.133841720299962	0.9102481389616801	0.39108957261867267	0.9335935243705773	0.7606456716107566	0.18231342028992553	1.0011101065646404	0.6743899077639025	0.04936818966175674	1.050570982502103	0.6739339037015546	0.028782103499499327	1.0427472936011706	0.669316957529482	0.04390432268579285	0.9949866160256429	0.6456115649979421	0.1588837783004766	1.1029099295454488	1.0968957744671195	0.10651623012642669	0.8738712698913923	1.0694629323753049	0.05202949824231206	0.9254390102282688	0.7989105138197631	0.0008776564398087496	1.003986232327587	0.7054523753250539	-0.00615239897783738	0.9748150310789195	0.6675660069062894	0.014020921364191113	0.9442512977646655	0.6446225741948663	
87	1.5818181818181818	0.3804911998442432	0.6677080298862028	0.9116742861214283	0.3539348297097097	0.21760921376421782	0.9358854753408158	0.3735232153937156	-0.20834975489144808	0.9352340073343459	0.29911735837268566	-0.19044375405698294	0.7752800309200241	0.38353788277724005	-0.19970290741285568	0.784410765586385	0.39570024986960073	-0.3123463541947093	0.9998880660980524	0.19852311657339655	0.6548804526950879	0.9873478623578477	0.16277616196528746	0.19555426717959762	1.041651958701634	0.16505035088775172	-0.24455879853969054	1.016059089184793	0.16715402453950637	-0.21580866034631185	0.8283940962282268	0.10716118613007475	-0.25880495931630976	0.9008637728763245	0.18289905763668568	-0.2895964444474295	1.0222523326126673	0.2940475394857964	1.2065086206227844	0.9983801871346032	0.27444128685166014	1.4644318907781244	0.9776782361849721	0.24884402035974557	1.3217263581083873	0.9103226179566686	0.4407473341771769	1.1333917164666942	0.9125535990977497	0.38519564839389275	0.9408254107076893	0.7588797108750063	0.17510142884427216	1.0044306163353576	0.6720310555111042	0.04403767249741761	1.052751623399736	0.6760150735594194	0.022265697516352358	1.0439167434797572	0.6723857699691038	0.03808553283814057	0.9970231108825925	0.649422771797454	0.15772660949626627	1.1030807525870432	1.096415404493924	0.1032869737865412	0.8794580421953844	1.0508878753020592	0.05382433904939696	0.9319971408196827	0.7884562615010978	0.000578710103865317	1.0096620564188634	0.6997624138918543	-0.006160224502752446	0.9806015912077208	0.6671214951285656	0.014034487208751927	0.9509297665034047	0.6359701769934978	
88	1.6	0.3810026348294758	0.6676142809840588	0.9139218516577652	0.35368232234711516	0.21733071319963304	0.9352122446376303	0.373069884723865	-0.2075490411021892	0.9342780998029662	0.29941579899805204	-0.1899879084500788	0.7745074524582187	0.38371966068245655	-0.19749058439387776	0.7812597900974549	0.39585205065638707	-0.3139603119311901	1.000382149964605	0.19856246089377463	0.6550880392455675	0.9873163411460568	0.16276568900981436	0.19521339718415814	1.0417462967353337	0.1656933458752762	-0.2454782825046105	1.0175941817782226	0.1669642941988264	-0.21473530753630515	0.8262761488848109	0.10679760839978647	-0.2572172103375997	0.90067371974941	0.1831659500952828	-0.2896917704431538	1.0220817222301808	0.2940581480722874	1.206469609388979	0.9983909302060645	0.2744474949787684	1.4644216409972954	0.977711195649597	0.24881679286157293	1.3216686612456146	0.9106591539588382	0.44060059912828026	1.1332155710729228	0.9139815938072835	0.38060400658308163	0.9473744802734607	0.7577728436778879	0.1683057851611448	1.0078105249052627	0.6704688742131892	0.039361446068163615	1.0548815370223033	0.6799632394640501	0.015624945622292469	1.0459790611664288	0.6748515641491724	0.03355665322837461	0.9979265842504301	0.655591351125278	0.1564731317090266	1.1032866998663242	1.0959173421423212	0.10084494852460048	0.8841143662291671	1.0332574024579517	0.05643087745384749	0.9384282260136081	0.7756746022557159	0.0036787902743848785	1.0153116184086843	0.6901446985050101	-0.006504923136845504	0.9871568300759426	0.668931666536579	0.013776704665158773	0.9556064160952942	0.6295370739781883	
89	1.6181818181818182	0.3814746222769879	0.6676390454611765	0.9158039250107624	0.35333680547255075	0.21707149489777505	0.934429116661975	0.37263379405309677	-0.20665486075189882	0.9332364231738954	0.29993099755351427	-0.19056239862838842	0.7750080143106589	0.38403569440782337	-0.19546613804643648	0.7783706853072024	0.39601438846760373	-0.31551552345824063	1.0008290672883133	0.19857956770926197	0.6554044532966705	0.9872408779413244	0.16273086258121186	0.1949338875606687	1.041812303144745	0.16628908785431082	-0.24638551303073758	1.019074862574802	0.16638452244048801	-0.2126965385791584	0.8237393720753501	0.10648412182332109	-0.2548754151307441	0.9004245818077934	0.1833152937355471	-0.2895873817481471	1.0217137655089743	0.2940689215964163	1.2064388239058021	0.9983812468619059	0.27445122912484277	1.464462105841356	0.9777550084384423	0.24882666077841153	1.3216393135529447	0.9108180949626725	0.4403348281846721	1.1333634233387972	0.9140322432090484	0.3775021631304544	0.9527558354335988	0.7569764252531244	0.16244970900487668	1.0108296133356847	0.6704341345958137	0.03539445913365344	1.0567149491980312	0.6847871169911306	0.009352108715795483	1.0485285738739965	0.6769978849765137	0.029749629243662014	0.9981751895814044	0.6628605920726124	0.15532292644747064	1.1034410552651457	1.0954823641373543	0.0996164605133518	0.8872284109889117	1.0187989539879854	0.05971697585604112	0.943987010810609	0.7627651157274901	0.010876729435389546	1.0218729330142393	0.6766051641149131	-0.006981136086717021	0.9942586088808321	0.6720011570066768	0.012977332430563766	0.9586783086669419	0.626807061989025	
